<?xml version="1.0" encoding="UTF-8"?>
<svg xmlns="http://www.w3.org/2000/svg" xmlns:xlink="http://www.w3.org/1999/xlink" width="15px" height="15px" viewBox="0 0 15 15" version="1.1">
<g id="surface1">
<path style="fill-rule:evenodd;fill:rgb(100%,100%,100%);fill-opacity:1;stroke-width:1;stroke-linecap:butt;stroke-linejoin:miter;stroke:rgb(100%,100%,100%);stroke-opacity:1;stroke-miterlimit:4;" d="M 12.025 9.920833 L 16 13.95 L 14 16 L 9.925 12.025 C 8.895833 12.6625 7.7125 13 6.5 13 C 2.908333 13 0 10.083333 0 6.5 C 0 2.908333 2.916667 0 6.5 0 C 10.091667 0 13 2.916667 13 6.5 C 13 7.708333 12.666667 8.891667 12.025 9.920833 Z M 1.995833 6.45 C 1.995833 8.933333 4.0125 10.95 6.495833 10.95 C 8.975 10.95 10.995833 8.9375 10.995833 6.45 C 10.995833 3.970833 8.983333 1.95 6.495833 1.95 C 4.016667 1.95 1.995833 3.966667 1.995833 6.45 Z M 1.995833 6.45 " transform="matrix(0.9375,0,0,0.9375,0,0)"/>
</g>
</svg>
